<svg id="Icon" xmlns="http://www.w3.org/2000/svg" width="60" height="60" viewBox="0 0 60 60">
  <defs>
    <style>
      .cls-1 {
        fill: #ffb534;
      }

      .cls-2 {
        fill: #fff;
        fill-rule: evenodd;
      }
    </style>
  </defs>
  <rect id="Icon_bg" class="cls-1" width="60" height="60"/>
  <path id="icon-2" data-name="icon" class="cls-2" d="M462.2,1078.6l-1.036-4.1a0.614,0.614,0,0,0,.5-0.6v-0.66a2.621,2.621,0,0,0-2.631-2.6H454.31v-1.36a1.286,1.286,0,0,0-1.3-1.28H428.964a1.286,1.286,0,0,0-1.3,1.28v11.22a0.627,0.627,0,0,0,1.253,0v-11.22a0.037,0.037,0,0,1,.042-0.04h24.051a0.037,0.037,0,0,1,.042.04v11.22a0.627,0.627,0,0,0,1.253,0v-0.7H461.7a2.047,2.047,0,0,1,1.946,1.4H461.7a0.624,0.624,0,0,0-.626.62v1.32a1.953,1.953,0,0,0,1.962,1.94h0.71v2.72h-1.637a3.982,3.982,0,0,0-7.5,0h-0.3v-4.66a0.627,0.627,0,0,0-1.253,0v4.66h-13a3.981,3.981,0,0,0-7.5,0h-3.6a0.043,0.043,0,0,1-.042-0.04v-1.36h2.714a0.62,0.62,0,1,0,0-1.24h-6.013a0.62,0.62,0,1,0,0,1.24h2.046v1.36a1.286,1.286,0,0,0,1.3,1.28h3.383c0,0.01,0,.03,0,0.04a3.967,3.967,0,0,0,7.934,0c0-.01,0-0.03,0-0.04h14.116c0,0.01,0,.03,0,0.04a3.967,3.967,0,0,0,7.934,0c0-.01,0-0.03,0-0.04h2.048a0.624,0.624,0,0,0,.626-0.62v-6.6A3.276,3.276,0,0,0,462.2,1078.6Zm-7.889-4.08h5.565l1.023,4.04H454.31v-4.04Zm4.718-2.64a1.37,1.37,0,0,1,1.378,1.36v0.04h-6.1v-1.4h4.718Zm-22.715,19.88a2.68,2.68,0,1,1,2.714-2.68A2.7,2.7,0,0,1,436.313,1091.76Zm22.047,0a2.68,2.68,0,1,1,2.714-2.68A2.7,2.7,0,0,1,458.36,1091.76Zm4.676-7.92a0.7,0.7,0,0,1-.709-0.7v-0.7h1.419v1.4h-0.71Zm-26.723,3.96a1.28,1.28,0,1,0,1.294,1.28A1.293,1.293,0,0,0,436.313,1087.8Zm22.047,0a1.28,1.28,0,1,0,1.294,1.28A1.293,1.293,0,0,0,458.36,1087.8Zm-17.329-2.02a0.625,0.625,0,0,0,.626.62h9.354a0.62,0.62,0,1,0,0-1.24h-9.354A0.625,0.625,0,0,0,441.031,1085.78Zm-14.072-2.02h8.018a0.62,0.62,0,1,0,0-1.24h-8.018A0.62,0.62,0,1,0,426.959,1083.76Zm18.932-9.64-5.57,5.5-2.9-2.86a0.635,0.635,0,0,0-.886,0,0.619,0.619,0,0,0,0,.88l3.34,3.3a0.635,0.635,0,0,0,.886,0l6.013-5.94a0.619,0.619,0,0,0,0-.88A0.635,0.635,0,0,0,445.891,1074.12Z" transform="translate(-415 -1050)"/>
</svg>
