<svg id="Icon" xmlns="http://www.w3.org/2000/svg" width="60" height="60" viewBox="0 0 60 60">
  <defs>
    <style>
      .cls-1 {
        fill: #34c3ff;
      }

      .cls-2 {
        fill: #fff;
        fill-rule: evenodd;
      }
    </style>
  </defs>
  <rect id="Icon_bg" class="cls-1" width="60" height="60"/>
  <path id="Icon-2" data-name="Icon" class="cls-2" d="M857,1070.44l-1.451-.11-0.121,1.69a12.253,12.253,0,0,0-9.07-4.02,12.5,12.5,0,0,0,0,25,12.3,12.3,0,0,0,10.265-5.55l-1.207-.82a10.863,10.863,0,0,1-9.058,4.9,11.031,11.031,0,0,1,0-22.06,10.806,10.806,0,0,1,8.057,3.61l-1.851-.14-0.106,1.47,4.234,0.31Zm-18.933,10.34a2.429,2.429,0,0,0,.947.24c0.356,0,.608-0.11.608-0.37a0.539,0.539,0,0,0-.624-0.41h-0.46v-0.73h0.443a0.477,0.477,0,0,0,.554-0.31c0-.17-0.176-0.29-0.51-0.29a2.022,2.022,0,0,0-.86.23l-0.219-.74a2.666,2.666,0,0,1,1.309-.3,1.116,1.116,0,0,1,1.332.93,0.866,0.866,0,0,1-.7.84v0.01a0.87,0.87,0,0,1,.816.84c0,0.7-.657,1.11-1.611,1.11a2.514,2.514,0,0,1-1.243-.28Zm4.617,1.05a1.538,1.538,0,1,1,.006,0h-0.006Zm0.011-.75c0.28,0,.466-0.35.466-1.11s-0.186-1.11-.471-1.11-0.471.34-.471,1.11,0.186,1.11.471,1.11h0Zm3.183-3a9.807,9.807,0,0,1,1.3-.08,2.885,2.885,0,0,1,1.66.38,1.569,1.569,0,0,1,.734,1.41,1.788,1.788,0,0,1-.679,1.52,3.173,3.173,0,0,1-1.917.5,7.786,7.786,0,0,1-1.1-.06v-3.67Zm1.035,2.92a1.826,1.826,0,0,0,.241.01,1.124,1.124,0,0,0,1.31-1.16,1.03,1.03,0,0,0-1.189-1.06,1.909,1.909,0,0,0-.362.03V1081Zm5.725,0.09a3.849,3.849,0,0,0,.044.68H851.75l-0.055-.23h-0.021a1.012,1.012,0,0,1-.789.29,0.875,0.875,0,0,1-.943-0.85c0-.74.647-1.07,1.666-1.07v-0.02c0-.1-0.066-0.22-0.471-0.22a1.861,1.861,0,0,0-.817.21l-0.18-.65a2.564,2.564,0,0,1,1.177-.26,1.134,1.134,0,0,1,1.321,1.21v0.91Zm-1-.55c-0.455,0-.674.11-0.674,0.34a0.247,0.247,0,0,0,.3.24,0.4,0.4,0,0,0,.367-0.28,0.689,0.689,0,0,0,.011-0.15v-0.15Zm2.443-1.5,0.356,1.18c0.044,0.16.1,0.38,0.137,0.51H854.6c0.038-.14.082-0.36,0.115-0.51l0.268-1.18h1.129l-0.57,1.56a4.369,4.369,0,0,1-1.09,2.02,1.683,1.683,0,0,1-.97.38l-0.192-.88a1.2,1.2,0,0,0,.335-0.07,0.955,0.955,0,0,0,.35-0.25,0.223,0.223,0,0,0,.055-0.13,0.406,0.406,0,0,0-.044-0.16l-1.057-2.47h1.156Z" transform="translate(-815 -1050)"/>
</svg>
