<svg id="Icon" xmlns="http://www.w3.org/2000/svg" width="60" height="60" viewBox="0 0 60 60">
  <defs>
    <style>
      .cls-1 {
        fill: #fe3e57;
      }

      .cls-2 {
        fill: #fff;
        fill-rule: evenodd;
      }
    </style>
  </defs>
  <rect id="Icon_bg" class="cls-1" width="60" height="60"/>
  <path id="Icon-2" data-name="Icon" class="cls-2" d="M1257.38,1079.68a2.391,2.391,0,0,0-1.45-.6,2.114,2.114,0,0,0-1.6.6l-2.89,2.79a1.309,1.309,0,0,0-.19-0.27,1.885,1.885,0,0,0-1.47-.64h-4.04a8.421,8.421,0,0,1-2.21-.29,5.543,5.543,0,0,0-5.08,1.05,6.581,6.581,0,0,0-1.32,1.39l-0.73-.69a0.506,0.506,0,0,0-.36-0.14h0a0.514,0.514,0,0,0-.37.15l-3.52,3.57a0.508,0.508,0,0,0-.15.36,0.52,0.52,0,0,0,.16.35l5.97,5.55a0.518,0.518,0,0,0,.35.14,0.53,0.53,0,0,0,.37-0.15l3.49-3.5a0.554,0.554,0,0,0,.15-0.36,0.5,0.5,0,0,0-.16-0.35l-0.3-.29,0.69-.08a10.862,10.862,0,0,1,1.28-.07h6.15a4.75,4.75,0,0,0,2.53-.64,0.01,0.01,0,0,0,.01-0.01,3.055,3.055,0,0,0,.66-0.58l4.14-4.76a1.711,1.711,0,0,0-.11-2.53h0Zm-18.91,12.12-5.23-4.86,2.81-2.86,5.2,4.93Zm18.25-10.24-4.15,4.77a2.861,2.861,0,0,1-.45.4,3.755,3.755,0,0,1-1.97.47h-6.16a12.623,12.623,0,0,0-1.38.08l-1.54.17-3.2-3.04a6.478,6.478,0,0,1,1.22-1.32,4.508,4.508,0,0,1,4.16-.86,9.348,9.348,0,0,0,2.49.33h4.04a0.9,0.9,0,0,1,.92.97,1.091,1.091,0,0,1-.23.7,0.883,0.883,0,0,1-.7.28h-3.52a0.512,0.512,0,0,0-.52.5,0.506,0.506,0,0,0,.52.5h3.52a1.9,1.9,0,0,0,1.47-.64,2.04,2.04,0,0,0,.49-1.27l3.33-3.22a1.222,1.222,0,0,1,1.63.03,0.742,0.742,0,0,1,.03,1.15h0Zm0,0-12.07,3.32a0.5,0.5,0,0,0-.61-0.37,0.489,0.489,0,0,0-.38.6v0.02a0.513,0.513,0,0,0,.5.38,0.375,0.375,0,0,0,.11-0.01,0.5,0.5,0,0,0,.39-0.6Zm0,0-9.19-6.35h4.98a1.242,1.242,0,0,0,.73-0.23,1.2,1.2,0,0,0,.73.23h4.98a1.242,1.242,0,0,0,.73-0.23,1.19,1.19,0,0,0,.72.23h4.98a1.221,1.221,0,0,0,1.24-1.21v-2.26a2.619,2.619,0,0,0-1.46-2.35,2.756,2.756,0,0,0,.68-1.83,2.951,2.951,0,0,0-5.9,0,2.808,2.808,0,0,0,.68,1.83,2.61,2.61,0,0,0-.94.8,2.73,2.73,0,0,0-.95-0.8,2.808,2.808,0,0,0,.68-1.83,2.951,2.951,0,0,0-5.9,0,2.756,2.756,0,0,0,.68,1.83,2.643,2.643,0,0,0-.95.8,1.4,1.4,0,0,1-.27-2.63,2.951,2.951,0,0,0-5.9,0,2.808,2.808,0,0,0,.68,1.83,2.637,2.637,0,0,0-1.46,2.35v2.26a1.227,1.227,0,0,0,1.24,1.21h0Zm15.36-9.53a1.88,1.88,0,1,1-1.92,1.88,1.9,1.9,0,0,1,1.92-1.88h0Zm-1.33,4.45a2.99,2.99,0,0,0,1.33.31,2.958,2.958,0,0,0,1.33-.31,1.624,1.624,0,0,1,1.38,1.61v2.26a0.214,0.214,0,0,1-.22.21h-4.98a0.205,0.205,0,0,1-.21-0.21v-2.26a1.625,1.625,0,0,1,1.37-1.61h0Zm-5.1-4.45a1.881,1.881,0,1,1-1.93,1.88,1.9,1.9,0,0,1,1.93-1.88h0Zm-1.33,4.45a2.958,2.958,0,0,0,1.33.31,2.99,2.99,0,0,0,1.33-.31,1.625,1.625,0,0,1,1.37,1.61v2.26a0.205,0.205,0,0,1-.21.21h-4.98a0.214,0.214,0,0,1-.22-0.21v-2.26a1.624,1.624,0,0,1,1.38-1.61h0Zm-5.11-4.45a1.881,1.881,0,1,1-1.93,1.88,1.908,1.908,0,0,1,1.93-1.88h0Zm-2.71,6.06a1.633,1.633,0,0,1,1.38-1.61,3.008,3.008,0,0,0,2.66,0,1.633,1.633,0,0,1,1.38,1.61v2.26a0.214,0.214,0,0,1-.22.21h-4.98a0.214,0.214,0,0,1-.22-0.21v-2.26Zm0,0" transform="translate(-1215 -1050)"/>
</svg>
