<svg xmlns="http://www.w3.org/2000/svg" width="22" height="20" viewBox="0 0 22 20">
  <defs>
    <style>
      .cls-1 {
        fill: #29282d;
        fill-rule: evenodd;
      }
    </style>
  </defs>
  <path id="cart_icon" class="cls-1" d="M1527.44,125a2.725,2.725,0,1,1,2.74-2.724A2.737,2.737,0,0,1,1527.44,125Zm0-3.814a1.09,1.09,0,1,0,1.09,1.09A1.094,1.094,0,0,0,1527.44,121.183Zm1.75-2.806h-12.81a0.823,0.823,0,0,1-.8-0.628l-2.68-11.115h-2.06a0.817,0.817,0,1,1,0-1.634h2.71a0.823,0.823,0,0,1,.8.627l0.74,3.077h16.1a0.818,0.818,0,0,1,.8,1.015l-2,8.037A0.822,0.822,0,0,1,1529.19,118.377Zm-12.16-1.635h11.52l1.59-6.4h-14.65Zm0.45,8.255a2.725,2.725,0,1,1,2.74-2.724A2.737,2.737,0,0,1,1517.48,125Zm0-3.814a1.09,1.09,0,1,0,1.09,1.09A1.094,1.094,0,0,0,1517.48,121.183Z" transform="translate(-1510 -105)"/>
</svg>
