<svg xmlns="http://www.w3.org/2000/svg" width="20" height="20" viewBox="0 0 20 20">
  <defs>
    <style>
      .cls-1 {
        fill: #29282d;
        fill-rule: evenodd;
      }
    </style>
  </defs>
  <path id="heart_icon" class="cls-1" d="M1484.78,109.589a6.683,6.683,0,0,0-4.17-4.371c-1.71-.595-3.75,0-5.58,1.611-1.83-1.569-3.88-2.121-5.58-1.569a6.881,6.881,0,0,0-4.17,4.371c-0.47,1.57-.51,4.117,1.95,7.215,1.11,1.4,2.82,3.395,4.22,4.965,2.68,3.014,3.11,3.183,3.49,3.183h0.17c0.39,0,.77-0.169,3.45-3.225,1.41-1.613,3.11-3.608,4.22-4.966C1485.25,113.706,1485.25,111.159,1484.78,109.589Zm-3.28,6.2c-1.96,2.462-5.32,6.324-6.47,7.386-1.15-1.062-4.52-4.924-6.48-7.386-1.61-1.994-2.21-3.946-1.7-5.687a4.984,4.984,0,0,1,3.11-3.224c1.23-.468,2.9.169,4.43,1.655a0.84,0.84,0,0,0,1.06.126,0.446,0.446,0,0,0,.22-0.17c1.53-1.442,3.19-2.079,4.42-1.655a5.168,5.168,0,0,1,3.11,3.268C1483.71,111.8,1483.12,113.79,1481.5,115.784Z" transform="translate(-1465.03 -105)"/>
</svg>
