<?xml version="1.0" encoding="UTF-8"?>
<svg xmlns="http://www.w3.org/2000/svg" xmlns:xlink="http://www.w3.org/1999/xlink" width="17px" height="16px" viewBox="0 0 17 16" version="1.1">
<g id="surface1">
<path style=" stroke:none;fill-rule:nonzero;fill:rgb(0%,0%,0%);fill-opacity:1;" d="M 17 8.179688 C 17 12.601562 13.625 15.75 8.640625 15.75 C 3.859375 15.75 0 12.289062 0 8 C 0 3.710938 3.859375 0.25 8.640625 0.25 C 10.964844 0.25 12.925781 1.015625 14.433594 2.277344 L 12.082031 4.304688 C 9.003906 1.644531 3.285156 3.644531 3.285156 8 C 3.285156 10.703125 5.691406 12.894531 8.640625 12.894531 C 12.058594 12.894531 13.34375 10.695312 13.542969 9.554688 L 8.640625 9.554688 L 8.640625 6.886719 L 16.863281 6.886719 C 16.945312 7.285156 17 7.664062 17 8.179688 Z M 17 8.179688 "/>
</g>
</svg>
