<svg xmlns="http://www.w3.org/2000/svg" width="16" height="20" viewBox="0 0 16 20">
  <defs>
    <style>
      .cls-1 {
        fill: #fe3e57;
        fill-rule: evenodd;
      }
    </style>
  </defs>
  <path id="bag" class="cls-1" d="M968,3579.29l-1.145-12.89a0.553,0.553,0,0,0-.547-0.51h-2.354a3.948,3.948,0,0,0-7.9,0H953.7a0.55,0.55,0,0,0-.547.51l-1.145,12.89c0,0.02,0,.04,0,0.05a2.854,2.854,0,0,0,3,2.67h10a2.854,2.854,0,0,0,3-2.67,0.257,0.257,0,0,0,0-.05h0Zm-7.994-16.18a2.844,2.844,0,0,1,2.844,2.78h-5.688a2.844,2.844,0,0,1,2.844-2.78h0Zm5,17.79h-10a1.763,1.763,0,0,1-1.9-1.53l1.1-12.37h1.847v1.68a0.552,0.552,0,0,0,1.1,0V3567h5.692v1.68a0.552,0.552,0,0,0,1.1,0V3567H965.8l1.1,12.37a1.765,1.765,0,0,1-1.9,1.53h0Zm0,0" transform="translate(-952 -3562)"/>
</svg>
