<svg xmlns="http://www.w3.org/2000/svg" width="19" height="20" viewBox="0 0 19 20">
  <defs>
    <style>
      .cls-1 {
        fill: #29282d;
        fill-rule: evenodd;
      }
    </style>
  </defs>
  <path id="search" class="cls-1" d="M898.709,3580.22l-4.681-4.95a8.153,8.153,0,0,0,1.863-5.19,7.944,7.944,0,1,0-7.944,8.07,7.746,7.746,0,0,0,4.551-1.46l4.718,4.99a1.032,1.032,0,0,0,1.464.03,1.067,1.067,0,0,0,.029-1.49h0Zm-10.762-16.11a5.971,5.971,0,1,1-5.869,5.97,5.923,5.923,0,0,1,5.869-5.97h0Zm0,0" transform="translate(-880 -3562)"/>
</svg>
